<svg height="40" width="40" version="1.1" xmlns="http://www.w3.org/2000/svg" xmlns:xlink="http://www.w3.org/1999/xlink" x="0px" y="0px" viewBox="0 0 1000 1000" enable-background="new 0 0 1000 1000" xml:space="preserve">
    <g><path fill="white" d="M313.6,668.2h517c24.6,0,49.2-16.4,57.4-41l98.5-406.7c8.2-16.4,0-32.8-8.2-49.2c-8.2-16.4-32.8-24.6-49.2-24.6H223.4L198.8,19.9H40.8C26.4,19.9,10,28.1,10,44.5c0,16.4,16.4,32.8,32.8,32.8h106.7l49.2,213.4l0,0c0,8.2,0,8.2,0,16.4l73.9,303.7c-32.8,16.4-65.7,57.4-65.7,106.7c0,32.8,16.4,57.4,32.8,73.9c-16.4,16.4-32.8,49.2-32.8,73.9c0,57.4,49.2,106.7,106.7,106.7c57.4,0,106.7-41,106.7-98.5c0-16.4-8.2-32.8-8.2-49.2H765c-8.2,16.4-8.2,32.8-8.2,49.2c0,57.4,49.2,106.7,106.7,106.7s106.7-49.2,106.7-106.7c0-57.4-41-98.5-98.5-106.7h-8.2H313.6l0,0c-24.6,0-49.2-24.6-49.2-49.2C272.6,692.9,289,668.2,313.6,668.2z M855.3,824.2c24.6,0,49.2,24.6,49.2,49.2c0,24.6-16.4,41-49.2,41c-24.6,0-49.2-24.6-49.2-49.2C806.1,840.6,830.7,824.2,855.3,824.2z M313.6,914.4c-24.6,0-49.2-24.6-49.2-49.2c0-24.6,24.6-49.2,49.2-49.2l0,0l0,0c24.6,0,49.2,24.6,49.2,49.2C362.9,898,338.3,914.4,313.6,914.4z M830.7,610.8H338.3l-65.7-287.2h623.7L830.7,610.8z M929.2,184l-16.4,82.1H256.2l-16.4-73.9L929.2,184z"/></g>
</svg>